<?xml version="1.0" encoding="utf-8"?>
<!-- Generator: Adobe Illustrator 24.3.0, SVG Export Plug-In . SVG Version: 6.00 Build 0)  -->
<svg version="1.1" id="Layer_1" xmlns="http://www.w3.org/2000/svg" xmlns:xlink="http://www.w3.org/1999/xlink" x="0px" y="0px"
	 viewBox="0 0 722.4 702" style="enable-background:new 0 0 722.4 702;" xml:space="preserve">
<style type="text/css">
	.st0{fill:#007BFF;stroke:#007BFF;stroke-width:2;stroke-miterlimit:10;}
</style>
<g>
	<path class="st0" d="M243,17.6L134.2,80.4V206L243,268.8L351.8,206V80.4L243,17.6z M346,202.6l-103,59.5l-103-59.5V83.7l103-59.5
		l103,59.5V202.6z"/>
	<path class="st0" d="M482.3,17.6L373.5,80.4V206l108.8,62.8L591.1,206V80.4L482.3,17.6z M585.3,202.6l-103,59.5l-103-59.5V83.7
		l103-59.5l103,59.5V202.6z"/>
	<path class="st0" d="M363.5,225.9l-108.8,62.8v125.6l108.8,62.8l108.8-62.8V288.7L363.5,225.9z M466.5,411l-103,59.5l-103-59.5V292
		l103-59.5l103,59.5V411z"/>
	<path class="st0" d="M122.5,225.9L13.7,288.7v125.6l108.8,62.8l108.8-62.8V288.7L122.5,225.9z M225.5,411l-103,59.5L19.5,411V292
		l103-59.5l103,59.5V411z"/>
	<path class="st0" d="M600,225.9l-108.8,62.8v125.6L600,477.1l108.8-62.8V288.7L600,225.9z M703,411l-103,59.5L497,411V292l103-59.5
		L703,292V411z"/>
	<path class="st0" d="M243,433.2L134.2,496v125.6L243,684.4l108.8-62.8V496L243,433.2z M346,618.3l-103,59.5l-103-59.5v-119
		l103-59.5l103,59.5V618.3z"/>
	<path class="st0" d="M482.3,433.2L373.5,496v125.6l108.8,62.8l108.8-62.8V496L482.3,433.2z M585.3,618.3l-103,59.5l-103-59.5v-119
		l103-59.5l103,59.5V618.3z"/>
</g>
<g>
	<g>
		<path d="M140.5,217.8V340h27.1V217.8H140.5z"/>
		<path d="M178,217.8v24h45.9V340h27.2v-98.1H297v-24L178,217.8L178,217.8z"/>
		<path d="M426.4,241.9v-24h-119V340h119v-24h-91.8v-25.1h64.7v-24h-64.7v-25H426.4z"/>
		<path d="M555.8,211.9l-46,63l-46-63l-27,128.1h27.1l14.2-68.1l31.8,43.3l31.8-43.3l14.2,68.1H583L555.8,211.9z"/>
	</g>
	<g>
		<g>
			<path d="M237.4,351.1v53.2h-69v-53.2h-28.9v132.5h28.9v-53.3h69v53.3h28.9V351.1H237.4z"/>
			<path d="M277.4,351.1v132.5h28.9V351.1H277.4z"/>
			<path d="M413.6,351.1L380.7,423l-32.8-71.9h-30.5l63.3,139l63.4-139H413.6z"/>
			<path d="M582,377.2v-26.1H455.2v132.5H582v-26.1h-97.9v-27.2h69v-26.1h-69v-27.1H582V377.2z"/>
		</g>
	</g>
</g>
</svg>
